<svg width="2597" height="552" viewBox="0 0 2597 552" fill="none" xmlns="http://www.w3.org/2000/svg">
<mask id="path-1-outside-1_17_69" maskUnits="userSpaceOnUse" x="709.5" y="110" width="1882" height="392" fill="black">
<rect fill="white" x="709.5" y="110" width="1882" height="392"/>
<path d="M912.331 112.5L988.331 284H969.081L945.081 230.5H867.581L844.581 284H825.331L899.081 112.5H912.331ZM874.831 213.75H937.581L905.331 141.25L874.831 213.75ZM1040.16 113.5L1090.91 176.5L1141.66 113.5H1164.16L1100.66 193V284H1081.41V193L1017.66 113.5H1040.16ZM1252.63 113.5V266.75H1332.88V284H1233.88V113.5H1252.63ZM1497.98 113.5V130.25H1423.48V189.75H1495.48V206.5H1423.48V267H1499.98V284H1404.73V113.5H1497.98ZM1659.21 122.25V143.5C1647.21 133.333 1634.38 128.25 1620.71 128.25C1611.71 128.25 1604.46 130.5 1598.96 135C1593.63 139.5 1590.96 145.5 1590.96 153C1590.96 166.167 1598.96 176.667 1614.96 184.5C1631.13 192.333 1643.63 200.25 1652.46 208.25C1661.3 216.083 1665.71 227.333 1665.71 242C1665.71 254.833 1661.13 265.417 1651.96 273.75C1642.96 282.083 1631.3 286.25 1616.96 286.25C1600.8 286.25 1586.05 281.25 1572.71 271.25V247.75C1579.05 254.75 1585.88 260.167 1593.21 264C1600.71 267.667 1608.63 269.5 1616.96 269.5C1625.63 269.5 1632.71 267.083 1638.21 262.25C1643.88 257.25 1646.71 250.583 1646.71 242.25C1646.71 232.75 1643.55 225.333 1637.21 220C1630.88 214.5 1621.21 208.417 1608.21 201.75C1595.21 194.917 1585.88 187.833 1580.21 180.5C1574.71 173.167 1571.96 164.167 1571.96 153.5C1571.96 141.333 1576.71 131.25 1586.21 123.25C1595.71 115.25 1607.38 111.25 1621.21 111.25C1634.88 111.25 1647.55 114.917 1659.21 122.25ZM1788.96 113.5C1804.79 113.5 1817.54 117.417 1827.21 125.25C1836.88 132.917 1841.71 143.5 1841.71 157C1841.71 166.167 1839.29 173.917 1834.46 180.25C1829.63 186.583 1822.63 191.333 1813.46 194.5C1826.96 196.5 1837.46 201.583 1844.96 209.75C1852.46 217.75 1856.21 227.25 1856.21 238.25C1856.21 252.417 1850.71 263.583 1839.71 271.75C1828.88 279.917 1814.63 284 1796.96 284H1744.96V113.5H1788.96ZM1763.46 189.25H1782.21C1796.21 189.25 1806.38 186.417 1812.71 180.75C1819.04 174.917 1822.21 167.583 1822.21 158.75C1822.21 148.583 1819.13 141.25 1812.96 136.75C1806.96 132.25 1797.71 130 1785.21 130H1763.46V189.25ZM1793.46 267.5C1807.13 267.5 1817.71 265.083 1825.21 260.25C1832.88 255.417 1836.71 247.583 1836.71 236.75C1836.71 226.75 1833.04 219.083 1825.71 213.75C1818.54 208.25 1806.88 205.5 1790.71 205.5H1763.46V267.5H1793.46ZM1947.69 113.5V211.75C1947.69 230.75 1952.02 245.167 1960.69 255C1969.52 264.667 1982.77 269.5 2000.44 269.5C2018.27 269.5 2031.52 264.583 2040.19 254.75C2048.86 244.75 2053.19 230.417 2053.19 211.75V113.5H2071.94V211.75C2071.94 235.083 2065.69 253.333 2053.19 266.5C2040.86 279.667 2023.44 286.25 2000.94 286.25C1977.44 286.25 1959.52 279.917 1947.19 267.25C1935.02 254.417 1928.94 235.917 1928.94 211.75V113.5H1947.69ZM2158.19 113.5H2202.94C2218.78 113.5 2231.36 117.583 2240.69 125.75C2250.19 133.917 2254.94 145.083 2254.94 159.25C2254.94 169.917 2252.19 178.833 2246.69 186C2241.19 193 2233.19 198.083 2222.69 201.25C2229.19 204.917 2234.03 208.417 2237.19 211.75C2240.36 215.083 2245.53 222.167 2252.69 233L2285.69 284H2263.44L2233.44 237C2225.78 225.167 2219.11 217.167 2213.44 213C2207.78 208.667 2200.86 206.5 2192.69 206.5H2176.94V284H2158.19V113.5ZM2194.44 190C2209.61 190 2220.28 187.5 2226.44 182.5C2232.61 177.333 2235.69 169.667 2235.69 159.5C2235.69 149 2232.53 141.5 2226.19 137C2220.03 132.333 2211.44 130 2200.44 130H2176.94V190H2194.44ZM2346.7 113.5L2397.45 176.5L2448.2 113.5H2470.7L2407.2 193V284H2387.95V193L2324.2 113.5H2346.7ZM722.402 396.7V442.3H784.502V396.7H795.752V499H784.502V452.65H722.402V499H711.152V396.7H722.402ZM904.621 396.7V406.75H859.921V442.45H903.121V452.5H859.921V488.8H905.821V499H848.671V396.7H904.621ZM998.43 396.1L1044.03 499H1032.48L1018.08 466.9H971.58L957.78 499H946.23L990.48 396.1H998.43ZM975.93 456.85H1013.58L994.23 413.35L975.93 456.85ZM1097.02 396.7V488.65H1145.17V499H1085.77V396.7H1097.02ZM1246.28 396.7V406.6H1209.68V499H1198.43V406.6H1162.28V396.7H1246.28ZM1301.31 396.7V442.3H1363.41V396.7H1374.66V499H1363.41V452.65H1301.31V499H1290.06V396.7H1301.31ZM1551.98 467.65C1554.28 464.95 1556.38 461.9 1558.28 458.5C1560.18 455.1 1561.88 451.65 1563.38 448.15H1574.48C1572.98 452.55 1570.93 457.05 1568.33 461.65C1565.83 466.15 1562.68 470.75 1558.88 475.45L1561.58 478.45C1562.38 479.45 1563.23 480.4 1564.13 481.3L1580.33 499H1565.93L1551.53 483.25C1545.63 489.15 1539.93 493.5 1534.43 496.3C1528.93 499 1523.48 500.35 1518.08 500.35C1510.88 500.35 1504.68 498.1 1499.48 493.6C1494.28 489 1491.68 483.25 1491.68 476.35C1491.68 470.75 1493.68 465.5 1497.68 460.6C1501.68 455.6 1508.13 450.55 1517.03 445.45C1512.53 440.95 1509.13 436.65 1506.83 432.55C1504.63 428.35 1503.53 424.1 1503.53 419.8C1503.53 414.3 1505.63 409.25 1509.83 404.65C1514.03 399.95 1520.13 397.6 1528.13 397.6C1535.73 397.6 1541.73 399.8 1546.13 404.2C1550.63 408.5 1552.88 413.7 1552.88 419.8C1552.88 425.4 1551.08 430.4 1547.48 434.8C1543.88 439.1 1538.98 443.2 1532.78 447.1L1551.98 467.65ZM1523.48 452.8L1516.58 457.3C1512.08 460.3 1508.68 463.25 1506.38 466.15C1504.18 469.05 1503.03 472.15 1502.93 475.45C1502.93 479.15 1504.18 482.35 1506.68 485.05C1509.28 487.75 1513.28 489.25 1518.68 489.55L1519.43 489.7C1522.93 489.7 1526.73 488.75 1530.83 486.85C1534.93 484.85 1539.53 481.1 1544.63 475.6L1523.48 452.8ZM1526.48 439.6C1532.18 436.2 1536.23 433 1538.63 430C1541.03 426.9 1542.23 423.65 1542.23 420.25C1542.23 416.45 1540.93 413.35 1538.33 410.95C1535.73 408.45 1532.33 407.2 1528.13 407.2C1524.33 407.2 1521.08 408.35 1518.38 410.65C1515.78 412.85 1514.48 415.7 1514.48 419.2C1514.48 422 1515.38 425 1517.18 428.2C1518.98 431.4 1522.08 435.2 1526.48 439.6ZM1682.25 396.7H1693.65L1724.4 474.55H1724.55L1754.85 396.7H1764.9L1795.8 474.25H1795.95L1825.95 396.7H1837.35L1796.7 499.75H1794.3L1759.8 412.6L1725.6 499.75H1723.2L1682.25 396.7ZM1935.17 396.7V406.75H1890.47V442.45H1933.67V452.5H1890.47V488.8H1936.37V499H1879.22V396.7H1935.17ZM1995.76 396.7V488.65H2043.91V499H1984.51V396.7H1995.76ZM2098.27 396.7V488.65H2146.42V499H2087.02V396.7H2098.27ZM2198.83 396.7L2271.28 481.3V396.7H2282.08V499H2272.18L2200.33 414.7V499H2189.53V396.7H2198.83ZM2390.91 396.7V406.75H2346.21V442.45H2389.41V452.5H2346.21V488.8H2392.11V499H2334.96V396.7H2390.91ZM2487.65 401.95V414.7C2480.45 408.6 2472.75 405.55 2464.55 405.55C2459.15 405.55 2454.8 406.9 2451.5 409.6C2448.3 412.3 2446.7 415.9 2446.7 420.4C2446.7 428.3 2451.5 434.6 2461.1 439.3C2470.8 444 2478.3 448.75 2483.6 453.55C2488.9 458.25 2491.55 465 2491.55 473.8C2491.55 481.5 2488.8 487.85 2483.3 492.85C2477.9 497.85 2470.9 500.35 2462.3 500.35C2452.6 500.35 2443.75 497.35 2435.75 491.35V477.25C2439.55 481.45 2443.65 484.7 2448.05 487C2452.55 489.2 2457.3 490.3 2462.3 490.3C2467.5 490.3 2471.75 488.85 2475.05 485.95C2478.45 482.95 2480.15 478.95 2480.15 473.95C2480.15 468.25 2478.25 463.8 2474.45 460.6C2470.65 457.3 2464.85 453.65 2457.05 449.65C2449.25 445.55 2443.65 441.3 2440.25 436.9C2436.95 432.5 2435.3 427.1 2435.3 420.7C2435.3 413.4 2438.15 407.35 2443.85 402.55C2449.55 397.75 2456.55 395.35 2464.85 395.35C2473.05 395.35 2480.65 397.55 2487.65 401.95ZM2586.5 401.95V414.7C2579.3 408.6 2571.6 405.55 2563.4 405.55C2558 405.55 2553.65 406.9 2550.35 409.6C2547.15 412.3 2545.55 415.9 2545.55 420.4C2545.55 428.3 2550.35 434.6 2559.95 439.3C2569.65 444 2577.15 448.75 2582.45 453.55C2587.75 458.25 2590.4 465 2590.4 473.8C2590.4 481.5 2587.65 487.85 2582.15 492.85C2576.75 497.85 2569.75 500.35 2561.15 500.35C2551.45 500.35 2542.6 497.35 2534.6 491.35V477.25C2538.4 481.45 2542.5 484.7 2546.9 487C2551.4 489.2 2556.15 490.3 2561.15 490.3C2566.35 490.3 2570.6 488.85 2573.9 485.95C2577.3 482.95 2579 478.95 2579 473.95C2579 468.25 2577.1 463.8 2573.3 460.6C2569.5 457.3 2563.7 453.65 2555.9 449.65C2548.1 445.55 2542.5 441.3 2539.1 436.9C2535.8 432.5 2534.15 427.1 2534.15 420.7C2534.15 413.4 2537 407.35 2542.7 402.55C2548.4 397.75 2555.4 395.35 2563.7 395.35C2571.9 395.35 2579.5 397.55 2586.5 401.95Z"/>
</mask>
<path d="M912.331 112.5L988.331 284H969.081L945.081 230.5H867.581L844.581 284H825.331L899.081 112.5H912.331ZM874.831 213.75H937.581L905.331 141.25L874.831 213.75ZM1040.16 113.5L1090.91 176.5L1141.66 113.5H1164.16L1100.66 193V284H1081.41V193L1017.66 113.5H1040.16ZM1252.63 113.5V266.75H1332.88V284H1233.88V113.5H1252.63ZM1497.98 113.5V130.25H1423.48V189.75H1495.48V206.5H1423.48V267H1499.98V284H1404.73V113.5H1497.98ZM1659.21 122.25V143.5C1647.21 133.333 1634.38 128.25 1620.71 128.25C1611.71 128.25 1604.46 130.5 1598.96 135C1593.63 139.5 1590.96 145.5 1590.96 153C1590.96 166.167 1598.96 176.667 1614.96 184.5C1631.13 192.333 1643.63 200.25 1652.46 208.25C1661.3 216.083 1665.71 227.333 1665.71 242C1665.71 254.833 1661.13 265.417 1651.96 273.75C1642.96 282.083 1631.3 286.25 1616.96 286.25C1600.8 286.25 1586.05 281.25 1572.71 271.25V247.75C1579.05 254.75 1585.88 260.167 1593.21 264C1600.71 267.667 1608.63 269.5 1616.96 269.5C1625.63 269.5 1632.71 267.083 1638.21 262.25C1643.88 257.25 1646.71 250.583 1646.71 242.25C1646.71 232.75 1643.55 225.333 1637.21 220C1630.88 214.5 1621.21 208.417 1608.21 201.75C1595.21 194.917 1585.88 187.833 1580.21 180.5C1574.71 173.167 1571.96 164.167 1571.96 153.5C1571.96 141.333 1576.71 131.25 1586.21 123.25C1595.71 115.25 1607.38 111.25 1621.21 111.25C1634.88 111.25 1647.55 114.917 1659.21 122.25ZM1788.96 113.5C1804.79 113.5 1817.54 117.417 1827.21 125.25C1836.88 132.917 1841.71 143.5 1841.71 157C1841.71 166.167 1839.29 173.917 1834.46 180.25C1829.63 186.583 1822.63 191.333 1813.46 194.5C1826.96 196.5 1837.46 201.583 1844.96 209.75C1852.46 217.75 1856.21 227.25 1856.21 238.25C1856.21 252.417 1850.71 263.583 1839.71 271.75C1828.88 279.917 1814.63 284 1796.96 284H1744.96V113.5H1788.96ZM1763.46 189.25H1782.21C1796.21 189.25 1806.38 186.417 1812.71 180.75C1819.04 174.917 1822.21 167.583 1822.21 158.75C1822.21 148.583 1819.13 141.25 1812.96 136.75C1806.96 132.25 1797.71 130 1785.21 130H1763.46V189.25ZM1793.46 267.5C1807.13 267.5 1817.71 265.083 1825.21 260.25C1832.88 255.417 1836.71 247.583 1836.71 236.75C1836.71 226.75 1833.04 219.083 1825.71 213.75C1818.54 208.25 1806.88 205.5 1790.71 205.5H1763.46V267.5H1793.46ZM1947.69 113.5V211.75C1947.69 230.75 1952.02 245.167 1960.69 255C1969.52 264.667 1982.77 269.5 2000.44 269.5C2018.27 269.5 2031.52 264.583 2040.19 254.75C2048.86 244.75 2053.19 230.417 2053.19 211.75V113.5H2071.94V211.75C2071.94 235.083 2065.69 253.333 2053.19 266.5C2040.86 279.667 2023.44 286.25 2000.94 286.25C1977.44 286.25 1959.52 279.917 1947.19 267.25C1935.02 254.417 1928.94 235.917 1928.94 211.75V113.5H1947.69ZM2158.19 113.5H2202.94C2218.78 113.5 2231.36 117.583 2240.69 125.75C2250.19 133.917 2254.94 145.083 2254.94 159.25C2254.94 169.917 2252.19 178.833 2246.69 186C2241.19 193 2233.19 198.083 2222.69 201.25C2229.19 204.917 2234.03 208.417 2237.19 211.75C2240.36 215.083 2245.53 222.167 2252.69 233L2285.69 284H2263.44L2233.44 237C2225.78 225.167 2219.11 217.167 2213.44 213C2207.78 208.667 2200.86 206.5 2192.69 206.5H2176.94V284H2158.19V113.5ZM2194.44 190C2209.61 190 2220.28 187.5 2226.44 182.5C2232.61 177.333 2235.69 169.667 2235.69 159.5C2235.69 149 2232.53 141.5 2226.19 137C2220.03 132.333 2211.44 130 2200.44 130H2176.94V190H2194.44ZM2346.7 113.5L2397.45 176.5L2448.2 113.5H2470.7L2407.2 193V284H2387.95V193L2324.2 113.5H2346.7ZM722.402 396.7V442.3H784.502V396.7H795.752V499H784.502V452.65H722.402V499H711.152V396.7H722.402ZM904.621 396.7V406.75H859.921V442.45H903.121V452.5H859.921V488.8H905.821V499H848.671V396.7H904.621ZM998.43 396.1L1044.03 499H1032.48L1018.08 466.9H971.58L957.78 499H946.23L990.48 396.1H998.43ZM975.93 456.85H1013.58L994.23 413.35L975.93 456.85ZM1097.02 396.7V488.65H1145.17V499H1085.77V396.7H1097.02ZM1246.28 396.7V406.6H1209.68V499H1198.43V406.6H1162.28V396.7H1246.28ZM1301.31 396.7V442.3H1363.41V396.7H1374.66V499H1363.41V452.65H1301.31V499H1290.06V396.7H1301.31ZM1551.98 467.65C1554.28 464.95 1556.38 461.9 1558.28 458.5C1560.18 455.1 1561.88 451.65 1563.38 448.15H1574.48C1572.98 452.55 1570.93 457.05 1568.33 461.65C1565.83 466.15 1562.68 470.75 1558.88 475.45L1561.58 478.45C1562.38 479.45 1563.23 480.4 1564.13 481.3L1580.33 499H1565.93L1551.53 483.25C1545.63 489.15 1539.93 493.5 1534.43 496.3C1528.93 499 1523.48 500.35 1518.08 500.35C1510.88 500.35 1504.68 498.1 1499.48 493.6C1494.28 489 1491.68 483.25 1491.68 476.35C1491.68 470.75 1493.68 465.5 1497.68 460.6C1501.68 455.6 1508.13 450.55 1517.03 445.45C1512.53 440.95 1509.13 436.65 1506.83 432.55C1504.63 428.35 1503.53 424.1 1503.53 419.8C1503.53 414.3 1505.63 409.25 1509.83 404.65C1514.03 399.95 1520.13 397.6 1528.13 397.6C1535.73 397.6 1541.73 399.8 1546.13 404.2C1550.63 408.5 1552.88 413.7 1552.88 419.8C1552.88 425.4 1551.08 430.4 1547.48 434.8C1543.88 439.1 1538.98 443.2 1532.78 447.1L1551.98 467.65ZM1523.48 452.8L1516.58 457.3C1512.08 460.3 1508.68 463.25 1506.38 466.15C1504.18 469.05 1503.03 472.15 1502.93 475.45C1502.93 479.15 1504.18 482.35 1506.68 485.05C1509.28 487.75 1513.28 489.25 1518.68 489.55L1519.43 489.7C1522.93 489.7 1526.73 488.75 1530.83 486.85C1534.93 484.85 1539.53 481.1 1544.63 475.6L1523.48 452.8ZM1526.48 439.6C1532.18 436.2 1536.23 433 1538.63 430C1541.03 426.9 1542.23 423.65 1542.23 420.25C1542.23 416.45 1540.93 413.35 1538.33 410.95C1535.73 408.45 1532.33 407.2 1528.13 407.2C1524.33 407.2 1521.08 408.35 1518.38 410.65C1515.78 412.85 1514.48 415.7 1514.48 419.2C1514.48 422 1515.38 425 1517.18 428.2C1518.98 431.4 1522.08 435.2 1526.48 439.6ZM1682.25 396.7H1693.65L1724.4 474.55H1724.55L1754.85 396.7H1764.9L1795.8 474.25H1795.95L1825.95 396.7H1837.35L1796.7 499.75H1794.3L1759.8 412.6L1725.6 499.75H1723.2L1682.25 396.7ZM1935.17 396.7V406.75H1890.47V442.45H1933.67V452.5H1890.47V488.8H1936.37V499H1879.22V396.7H1935.17ZM1995.76 396.7V488.65H2043.91V499H1984.51V396.7H1995.76ZM2098.27 396.7V488.65H2146.42V499H2087.02V396.7H2098.27ZM2198.83 396.7L2271.28 481.3V396.7H2282.08V499H2272.18L2200.33 414.7V499H2189.53V396.7H2198.83ZM2390.91 396.7V406.75H2346.21V442.45H2389.41V452.5H2346.21V488.8H2392.11V499H2334.96V396.7H2390.91ZM2487.65 401.95V414.7C2480.45 408.6 2472.75 405.55 2464.55 405.55C2459.15 405.55 2454.8 406.9 2451.5 409.6C2448.3 412.3 2446.7 415.9 2446.7 420.4C2446.7 428.3 2451.5 434.6 2461.1 439.3C2470.8 444 2478.3 448.75 2483.6 453.55C2488.9 458.25 2491.55 465 2491.55 473.8C2491.55 481.5 2488.8 487.85 2483.3 492.85C2477.9 497.85 2470.9 500.35 2462.3 500.35C2452.6 500.35 2443.75 497.35 2435.75 491.35V477.25C2439.55 481.45 2443.65 484.7 2448.05 487C2452.55 489.2 2457.3 490.3 2462.3 490.3C2467.5 490.3 2471.75 488.85 2475.05 485.95C2478.45 482.95 2480.15 478.95 2480.15 473.95C2480.15 468.25 2478.25 463.8 2474.45 460.6C2470.65 457.3 2464.85 453.65 2457.05 449.65C2449.25 445.55 2443.65 441.3 2440.25 436.9C2436.95 432.5 2435.3 427.1 2435.3 420.7C2435.3 413.4 2438.15 407.35 2443.85 402.55C2449.55 397.75 2456.55 395.35 2464.85 395.35C2473.05 395.35 2480.65 397.55 2487.65 401.95ZM2586.5 401.95V414.7C2579.3 408.6 2571.6 405.55 2563.4 405.55C2558 405.55 2553.65 406.9 2550.35 409.6C2547.15 412.3 2545.55 415.9 2545.55 420.4C2545.55 428.3 2550.35 434.6 2559.95 439.3C2569.65 444 2577.15 448.75 2582.45 453.55C2587.75 458.25 2590.4 465 2590.4 473.8C2590.4 481.5 2587.65 487.85 2582.15 492.85C2576.75 497.85 2569.75 500.35 2561.15 500.35C2551.45 500.35 2542.6 497.35 2534.6 491.35V477.25C2538.4 481.45 2542.5 484.7 2546.9 487C2551.4 489.2 2556.15 490.3 2561.15 490.3C2566.35 490.3 2570.6 488.85 2573.9 485.95C2577.3 482.95 2579 478.95 2579 473.95C2579 468.25 2577.1 463.8 2573.3 460.6C2569.5 457.3 2563.7 453.65 2555.9 449.65C2548.1 445.55 2542.5 441.3 2539.1 436.9C2535.8 432.5 2534.15 427.1 2534.15 420.7C2534.15 413.4 2537 407.35 2542.7 402.55C2548.4 397.75 2555.4 395.35 2563.7 395.35C2571.9 395.35 2579.5 397.55 2586.5 401.95Z" fill="#313C38"/>
<path d="M912.331 112.5L913.245 112.095L912.982 111.5H912.331V112.5ZM988.331 284V285H989.868L989.245 283.595L988.331 284ZM969.081 284L968.169 284.409L968.434 285H969.081V284ZM945.081 230.5L945.993 230.091L945.728 229.5H945.081V230.5ZM867.581 230.5V229.5H866.922L866.662 230.105L867.581 230.5ZM844.581 284V285H845.24L845.5 284.395L844.581 284ZM825.331 284L824.412 283.605L823.812 285H825.331V284ZM899.081 112.5V111.5H898.423L898.162 112.105L899.081 112.5ZM874.831 213.75L873.909 213.362L873.325 214.75H874.831V213.75ZM937.581 213.75V214.75H939.12L938.495 213.344L937.581 213.75ZM905.331 141.25L906.245 140.844L905.305 138.732L904.409 140.862L905.331 141.25ZM912.331 112.5L911.417 112.905L987.417 284.405L988.331 284L989.245 283.595L913.245 112.095L912.331 112.5ZM988.331 284V283H969.081V284V285H988.331V284ZM969.081 284L969.993 283.591L945.993 230.091L945.081 230.5L944.169 230.909L968.169 284.409L969.081 284ZM945.081 230.5V229.5H867.581V230.5V231.5H945.081V230.5ZM867.581 230.5L866.662 230.105L843.662 283.605L844.581 284L845.5 284.395L868.5 230.895L867.581 230.5ZM844.581 284V283H825.331V284V285H844.581V284ZM825.331 284L826.25 284.395L900 112.895L899.081 112.5L898.162 112.105L824.412 283.605L825.331 284ZM899.081 112.5V113.5H912.331V112.5V111.5H899.081V112.5ZM874.831 213.75V214.75H937.581V213.75V212.75H874.831V213.75ZM937.581 213.75L938.495 213.344L906.245 140.844L905.331 141.25L904.417 141.656L936.667 214.156L937.581 213.75ZM905.331 141.25L904.409 140.862L873.909 213.362L874.831 213.75L875.753 214.138L906.253 141.638L905.331 141.25ZM1040.16 113.5L1040.94 112.873L1040.64 112.5H1040.16V113.5ZM1090.91 176.5L1090.13 177.127L1090.91 178.094L1091.69 177.127L1090.91 176.5ZM1141.66 113.5V112.5H1141.18L1140.88 112.873L1141.66 113.5ZM1164.16 113.5L1164.94 114.124L1166.24 112.5H1164.16V113.5ZM1100.66 193L1099.88 192.376L1099.66 192.65V193H1100.66ZM1100.66 284V285H1101.66V284H1100.66ZM1081.41 284H1080.41V285H1081.41V284ZM1081.41 193H1082.41V192.649L1082.19 192.374L1081.41 193ZM1017.66 113.5V112.5H1015.58L1016.88 114.126L1017.66 113.5ZM1040.16 113.5L1039.38 114.127L1090.13 177.127L1090.91 176.5L1091.69 175.873L1040.94 112.873L1040.16 113.5ZM1090.91 176.5L1091.69 177.127L1142.44 114.127L1141.66 113.5L1140.88 112.873L1090.13 175.873L1090.91 176.5ZM1141.66 113.5V114.5H1164.16V113.5V112.5H1141.66V113.5ZM1164.16 113.5L1163.38 112.876L1099.88 192.376L1100.66 193L1101.44 193.624L1164.94 114.124L1164.16 113.5ZM1100.66 193H1099.66V284H1100.66H1101.66V193H1100.66ZM1100.66 284V283H1081.41V284V285H1100.66V284ZM1081.41 284H1082.41V193H1081.41H1080.41V284H1081.41ZM1081.41 193L1082.19 192.374L1018.44 112.874L1017.66 113.5L1016.88 114.126L1080.63 193.626L1081.41 193ZM1017.66 113.5V114.5H1040.16V113.5V112.5H1017.66V113.5ZM1252.63 113.5H1253.63V112.5H1252.63V113.5ZM1252.63 266.75H1251.63V267.75H1252.63V266.75ZM1332.88 266.75H1333.88V265.75H1332.88V266.75ZM1332.88 284V285H1333.88V284H1332.88ZM1233.88 284H1232.88V285H1233.88V284ZM1233.88 113.5V112.5H1232.88V113.5H1233.88ZM1252.63 113.5H1251.63V266.75H1252.63H1253.63V113.5H1252.63ZM1252.63 266.75V267.75H1332.88V266.75V265.75H1252.63V266.75ZM1332.88 266.75H1331.88V284H1332.88H1333.88V266.75H1332.88ZM1332.88 284V283H1233.88V284V285H1332.88V284ZM1233.88 284H1234.88V113.5H1233.88H1232.88V284H1233.88ZM1233.88 113.5V114.5H1252.63V113.5V112.5H1233.88V113.5ZM1497.98 113.5H1498.98V112.5H1497.98V113.5ZM1497.98 130.25V131.25H1498.98V130.25H1497.98ZM1423.48 130.25V129.25H1422.48V130.25H1423.48ZM1423.48 189.75H1422.48V190.75H1423.48V189.75ZM1495.48 189.75H1496.48V188.75H1495.48V189.75ZM1495.48 206.5V207.5H1496.48V206.5H1495.48ZM1423.48 206.5V205.5H1422.48V206.5H1423.48ZM1423.48 267H1422.48V268H1423.48V267ZM1499.98 267H1500.98V266H1499.98V267ZM1499.98 284V285H1500.98V284H1499.98ZM1404.73 284H1403.73V285H1404.73V284ZM1404.73 113.5V112.5H1403.73V113.5H1404.73ZM1497.98 113.5H1496.98V130.25H1497.98H1498.98V113.5H1497.98ZM1497.98 130.25V129.25H1423.48V130.25V131.25H1497.98V130.25ZM1423.48 130.25H1422.48V189.75H1423.48H1424.48V130.25H1423.48ZM1423.48 189.75V190.75H1495.48V189.75V188.75H1423.48V189.75ZM1495.48 189.75H1494.48V206.5H1495.48H1496.48V189.75H1495.48ZM1495.48 206.5V205.5H1423.48V206.5V207.5H1495.48V206.5ZM1423.48 206.5H1422.48V267H1423.48H1424.48V206.5H1423.48ZM1423.48 267V268H1499.98V267V266H1423.48V267ZM1499.98 267H1498.98V284H1499.98H1500.98V267H1499.98ZM1499.98 284V283H1404.73V284V285H1499.98V284ZM1404.73 284H1405.73V113.5H1404.73H1403.73V284H1404.73ZM1404.73 113.5V114.5H1497.98V113.5V112.5H1404.73V113.5ZM1659.21 122.25H1660.21V121.697L1659.75 121.403L1659.21 122.25ZM1659.21 143.5L1658.57 144.263L1660.21 145.658V143.5H1659.21ZM1598.96 135L1598.33 134.226L1598.32 134.231L1598.32 134.236L1598.96 135ZM1614.96 184.5L1614.52 185.398L1614.53 185.4L1614.96 184.5ZM1652.46 208.25L1651.79 208.991L1651.8 208.998L1652.46 208.25ZM1651.96 273.75L1651.29 273.01L1651.28 273.016L1651.96 273.75ZM1572.71 271.25H1571.71V271.75L1572.11 272.05L1572.71 271.25ZM1572.71 247.75L1573.46 247.079L1571.71 245.154V247.75H1572.71ZM1593.21 264L1592.75 264.886L1592.76 264.892L1592.77 264.898L1593.21 264ZM1638.21 262.25L1638.87 263.001L1638.88 263L1638.21 262.25ZM1637.21 220L1636.56 220.755L1636.56 220.76L1636.57 220.765L1637.21 220ZM1608.21 201.75L1607.75 202.635L1607.76 202.64L1608.21 201.75ZM1580.21 180.5L1579.41 181.1L1579.42 181.106L1579.42 181.111L1580.21 180.5ZM1586.21 123.25L1586.86 124.015L1586.21 123.25ZM1659.21 122.25H1658.21V143.5H1659.21H1660.21V122.25H1659.21ZM1659.21 143.5L1659.86 142.737C1647.71 132.442 1634.65 127.25 1620.71 127.25V128.25V129.25C1634.11 129.25 1646.72 134.225 1658.57 144.263L1659.21 143.5ZM1620.71 128.25V127.25C1611.55 127.25 1604.05 129.544 1598.33 134.226L1598.96 135L1599.6 135.774C1604.88 131.456 1611.88 129.25 1620.71 129.25V128.25ZM1598.96 135L1598.32 134.236C1592.74 138.941 1589.96 145.23 1589.96 153H1590.96H1591.96C1591.96 145.77 1594.52 140.059 1599.61 135.764L1598.96 135ZM1590.96 153H1589.96C1589.96 166.684 1598.32 177.466 1614.52 185.398L1614.96 184.5L1615.4 183.602C1599.61 175.867 1591.96 165.649 1591.96 153H1590.96ZM1614.96 184.5L1614.53 185.4C1630.65 193.211 1643.06 201.079 1651.79 208.991L1652.46 208.25L1653.14 207.509C1644.21 199.421 1631.61 191.456 1615.4 183.6L1614.96 184.5ZM1652.46 208.25L1651.8 208.998C1660.37 216.597 1664.71 227.545 1664.71 242H1665.71H1666.71C1666.71 227.122 1662.22 215.569 1653.13 207.502L1652.46 208.25ZM1665.71 242H1664.71C1664.71 254.563 1660.24 264.874 1651.29 273.01L1651.96 273.75L1652.64 274.49C1662.02 265.96 1666.71 255.104 1666.71 242H1665.71ZM1651.96 273.75L1651.28 273.016C1642.5 281.15 1631.09 285.25 1616.96 285.25V286.25V287.25C1631.5 287.25 1643.43 283.017 1652.64 274.484L1651.96 273.75ZM1616.96 286.25V285.25C1601.02 285.25 1586.48 280.324 1573.31 270.45L1572.71 271.25L1572.11 272.05C1585.61 282.176 1600.57 287.25 1616.96 287.25V286.25ZM1572.71 271.25H1573.71V247.75H1572.71H1571.71V271.25H1572.71ZM1572.71 247.75L1571.97 248.421C1578.37 255.496 1585.3 260.991 1592.75 264.886L1593.21 264L1593.68 263.114C1586.46 259.342 1579.72 254.004 1573.46 247.079L1572.71 247.75ZM1593.21 264L1592.77 264.898C1600.41 268.632 1608.48 270.5 1616.96 270.5V269.5V268.5C1608.78 268.5 1601.02 266.702 1593.65 263.102L1593.21 264ZM1616.96 269.5V270.5C1625.83 270.5 1633.16 268.023 1638.87 263.001L1638.21 262.25L1637.55 261.499C1632.27 266.143 1625.43 268.5 1616.96 268.5V269.5ZM1638.21 262.25L1638.88 263C1644.78 257.789 1647.71 250.837 1647.71 242.25H1646.71H1645.71C1645.71 250.329 1642.98 256.711 1637.55 261.5L1638.21 262.25ZM1646.71 242.25H1647.71C1647.71 232.504 1644.45 224.788 1637.86 219.235L1637.21 220L1636.57 220.765C1642.64 225.879 1645.71 232.996 1645.71 242.25H1646.71ZM1637.21 220L1637.87 219.245C1631.45 213.667 1621.7 207.541 1608.67 200.86L1608.21 201.75L1607.76 202.64C1620.73 209.293 1630.31 215.333 1636.56 220.755L1637.21 220ZM1608.21 201.75L1608.68 200.865C1595.74 194.064 1586.55 187.061 1581.01 179.889L1580.21 180.5L1579.42 181.111C1585.21 188.605 1594.69 195.77 1607.75 202.635L1608.21 201.75ZM1580.21 180.5L1581.01 179.9C1575.66 172.767 1572.96 163.987 1572.96 153.5H1571.96H1570.96C1570.96 164.346 1573.76 173.566 1579.41 181.1L1580.21 180.5ZM1571.96 153.5H1572.96C1572.96 141.635 1577.58 131.829 1586.86 124.015L1586.21 123.25L1585.57 122.485C1575.85 130.671 1570.96 141.031 1570.96 153.5H1571.96ZM1586.21 123.25L1586.86 124.015C1596.16 116.184 1607.59 112.25 1621.21 112.25V111.25V110.25C1607.17 110.25 1595.27 114.316 1585.57 122.485L1586.21 123.25ZM1621.21 111.25V112.25C1634.69 112.25 1647.17 115.863 1658.68 123.097L1659.21 122.25L1659.75 121.403C1647.92 113.971 1635.07 110.25 1621.21 110.25V111.25ZM1827.21 125.25L1826.58 126.027L1826.59 126.033L1827.21 125.25ZM1834.46 180.25L1835.25 180.857L1834.46 180.25ZM1813.46 194.5L1813.13 193.555L1813.31 195.489L1813.46 194.5ZM1844.96 209.75L1844.22 210.426L1844.23 210.434L1844.96 209.75ZM1839.71 271.75L1839.11 270.947L1839.11 270.951L1839.71 271.75ZM1744.96 284H1743.96V285H1744.96V284ZM1744.96 113.5V112.5H1743.96V113.5H1744.96ZM1763.46 189.25H1762.46V190.25H1763.46V189.25ZM1812.71 180.75L1813.38 181.495L1813.38 181.49L1813.39 181.486L1812.71 180.75ZM1812.96 136.75L1812.36 137.55L1812.37 137.558L1812.96 136.75ZM1763.46 130V129H1762.46V130H1763.46ZM1825.21 260.25L1824.68 259.404L1824.67 259.409L1825.21 260.25ZM1825.71 213.75L1825.1 214.543L1825.11 214.551L1825.12 214.559L1825.71 213.75ZM1763.46 205.5V204.5H1762.46V205.5H1763.46ZM1763.46 267.5H1762.46V268.5H1763.46V267.5ZM1788.96 113.5V114.5C1804.63 114.5 1817.14 118.373 1826.58 126.027L1827.21 125.25L1827.84 124.473C1817.95 116.46 1804.96 112.5 1788.96 112.5V113.5ZM1827.21 125.25L1826.59 126.033C1835.99 133.491 1840.71 143.772 1840.71 157H1841.71H1842.71C1842.71 143.228 1837.76 132.342 1827.83 124.466L1827.21 125.25ZM1841.71 157H1840.71C1840.71 165.982 1838.35 173.51 1833.67 179.643L1834.46 180.25L1835.25 180.857C1840.24 174.324 1842.71 166.351 1842.71 157H1841.71ZM1834.46 180.25L1833.67 179.643C1828.97 185.789 1822.15 190.438 1813.13 193.555L1813.46 194.5L1813.79 195.445C1823.1 192.228 1830.28 187.378 1835.25 180.857L1834.46 180.25ZM1813.46 194.5L1813.31 195.489C1826.64 197.464 1836.91 202.465 1844.22 210.426L1844.96 209.75L1845.7 209.074C1838.01 200.702 1827.28 195.536 1813.61 193.511L1813.46 194.5ZM1844.96 209.75L1844.23 210.434C1851.56 218.248 1855.21 227.503 1855.21 238.25H1856.21H1857.21C1857.21 226.997 1853.36 217.252 1845.69 209.066L1844.96 209.75ZM1856.21 238.25H1855.21C1855.21 252.113 1849.85 262.977 1839.11 270.947L1839.71 271.75L1840.31 272.553C1851.57 264.19 1857.21 252.72 1857.21 238.25H1856.21ZM1839.71 271.75L1839.11 270.951C1828.49 278.953 1814.48 283 1796.96 283V284V285C1814.78 285 1829.26 280.881 1840.31 272.549L1839.71 271.75ZM1796.96 284V283H1744.96V284V285H1796.96V284ZM1744.96 284H1745.96V113.5H1744.96H1743.96V284H1744.96ZM1744.96 113.5V114.5H1788.96V113.5V112.5H1744.96V113.5ZM1763.46 189.25V190.25H1782.21V189.25V188.25H1763.46V189.25ZM1782.21 189.25V190.25C1796.31 190.25 1806.77 187.404 1813.38 181.495L1812.71 180.75L1812.04 180.005C1805.98 185.43 1796.11 188.25 1782.21 188.25V189.25ZM1812.71 180.75L1813.39 181.486C1819.93 175.457 1823.21 167.855 1823.21 158.75H1822.21H1821.21C1821.21 167.312 1818.15 174.376 1812.03 180.014L1812.71 180.75ZM1822.21 158.75H1823.21C1823.21 148.379 1820.06 140.69 1813.55 135.942L1812.96 136.75L1812.37 137.558C1818.2 141.81 1821.21 148.787 1821.21 158.75H1822.21ZM1812.96 136.75L1813.56 135.95C1807.31 131.259 1797.8 129 1785.21 129V130V131C1797.62 131 1806.61 133.241 1812.36 137.55L1812.96 136.75ZM1785.21 130V129H1763.46V130V131H1785.21V130ZM1763.46 130H1762.46V189.25H1763.46H1764.46V130H1763.46ZM1793.46 267.5V268.5C1807.22 268.5 1818.03 266.07 1825.75 261.091L1825.21 260.25L1824.67 259.409C1817.39 264.097 1807.03 266.5 1793.46 266.5V267.5ZM1825.21 260.25L1825.74 261.096C1833.76 256.041 1837.71 247.849 1837.71 236.75H1836.71H1835.71C1835.71 247.318 1831.99 254.792 1824.68 259.404L1825.21 260.25ZM1836.71 236.75H1837.71C1837.71 226.468 1833.92 218.484 1826.3 212.941L1825.71 213.75L1825.12 214.559C1832.17 219.683 1835.71 227.032 1835.71 236.75H1836.71ZM1825.71 213.75L1826.32 212.957C1818.89 207.252 1806.94 204.5 1790.71 204.5V205.5V206.5C1806.81 206.5 1818.2 209.248 1825.1 214.543L1825.71 213.75ZM1790.71 205.5V204.5H1763.46V205.5V206.5H1790.71V205.5ZM1763.46 205.5H1762.46V267.5H1763.46H1764.46V205.5H1763.46ZM1763.46 267.5V268.5H1793.46V267.5V266.5H1763.46V267.5ZM1947.69 113.5H1948.69V112.5H1947.69V113.5ZM1960.69 255L1959.94 255.661L1959.95 255.668L1959.95 255.675L1960.69 255ZM2040.19 254.75L2040.94 255.411L2040.95 255.405L2040.19 254.75ZM2053.19 113.5V112.5H2052.19V113.5H2053.19ZM2071.94 113.5H2072.94V112.5H2071.94V113.5ZM2053.19 266.5L2052.47 265.811L2052.46 265.816L2053.19 266.5ZM1947.19 267.25L1946.46 267.938L1946.47 267.948L1947.19 267.25ZM1928.94 113.5V112.5H1927.94V113.5H1928.94ZM1947.69 113.5H1946.69V211.75H1947.69H1948.69V113.5H1947.69ZM1947.69 211.75H1946.69C1946.69 230.886 1951.05 245.578 1959.94 255.661L1960.69 255L1961.44 254.339C1952.99 244.755 1948.69 230.614 1948.69 211.75H1947.69ZM1960.69 255L1959.95 255.675C1969.03 265.614 1982.6 270.5 2000.44 270.5V269.5V268.5C1982.95 268.5 1970.01 263.72 1961.43 254.325L1960.69 255ZM2000.44 269.5V270.5C2018.45 270.5 2032.02 265.53 2040.94 255.411L2040.19 254.75L2039.44 254.089C2031.02 263.637 2018.09 268.5 2000.44 268.5V269.5ZM2040.19 254.75L2040.95 255.405C2049.82 245.161 2054.19 230.559 2054.19 211.75H2053.19H2052.19C2052.19 230.274 2047.89 244.339 2039.43 254.095L2040.19 254.75ZM2053.19 211.75H2054.19V113.5H2053.19H2052.19V211.75H2053.19ZM2053.19 113.5V114.5H2071.94V113.5V112.5H2053.19V113.5ZM2071.94 113.5H2070.94V211.75H2071.94H2072.94V113.5H2071.94ZM2071.94 211.75H2070.94C2070.94 234.903 2064.74 252.879 2052.47 265.811L2053.19 266.5L2053.92 267.189C2066.64 253.787 2072.94 235.264 2072.94 211.75H2071.94ZM2053.19 266.5L2052.46 265.816C2040.36 278.733 2023.24 285.25 2000.94 285.25V286.25V287.25C2023.64 287.25 2041.35 280.6 2053.92 267.184L2053.19 266.5ZM2000.94 286.25V285.25C1977.62 285.25 1960 278.968 1947.91 266.552L1947.19 267.25L1946.47 267.948C1959.05 280.865 1977.26 287.25 2000.94 287.25V286.25ZM1947.19 267.25L1947.92 266.562C1935.98 253.974 1929.94 235.756 1929.94 211.75H1928.94H1927.94C1927.94 236.077 1934.07 254.86 1946.46 267.938L1947.19 267.25ZM1928.94 211.75H1929.94V113.5H1928.94H1927.94V211.75H1928.94ZM1928.94 113.5V114.5H1947.69V113.5V112.5H1928.94V113.5ZM2158.19 113.5V112.5H2157.19V113.5H2158.19ZM2240.69 125.75L2240.03 126.503L2240.04 126.508L2240.69 125.75ZM2246.69 186L2247.48 186.618L2247.49 186.609L2246.69 186ZM2222.69 201.25L2222.4 200.293L2220.16 200.969L2222.2 202.121L2222.69 201.25ZM2237.19 211.75L2236.47 212.439L2237.19 211.75ZM2252.69 233L2253.53 232.457L2253.53 232.448L2252.69 233ZM2285.69 284V285H2287.53L2286.53 283.457L2285.69 284ZM2263.44 284L2262.6 284.538L2262.89 285H2263.44V284ZM2233.44 237L2234.29 236.462L2234.28 236.456L2233.44 237ZM2213.44 213L2212.83 213.794L2212.84 213.8L2212.85 213.806L2213.44 213ZM2176.94 206.5V205.5H2175.94V206.5H2176.94ZM2176.94 284V285H2177.94V284H2176.94ZM2158.19 284H2157.19V285H2158.19V284ZM2226.44 182.5L2227.07 183.277L2227.08 183.272L2227.08 183.267L2226.44 182.5ZM2226.19 137L2225.59 137.797L2225.6 137.806L2225.61 137.815L2226.19 137ZM2176.94 130V129H2175.94V130H2176.94ZM2176.94 190H2175.94V191H2176.94V190ZM2158.19 113.5V114.5H2202.94V113.5V112.5H2158.19V113.5ZM2202.94 113.5V114.5C2218.6 114.5 2230.93 118.536 2240.03 126.503L2240.69 125.75L2241.35 124.997C2231.79 116.631 2218.95 112.5 2202.94 112.5V113.5ZM2240.69 125.75L2240.04 126.508C2249.29 134.459 2253.94 145.332 2253.94 159.25H2254.94H2255.94C2255.94 144.835 2251.1 133.374 2241.34 124.992L2240.69 125.75ZM2254.94 159.25H2253.94C2253.94 169.738 2251.24 178.429 2245.9 185.391L2246.69 186L2247.49 186.609C2253.14 179.237 2255.94 170.096 2255.94 159.25H2254.94ZM2246.69 186L2245.91 185.382C2240.56 192.186 2232.75 197.171 2222.4 200.293L2222.69 201.25L2222.98 202.207C2233.63 198.995 2241.82 193.814 2247.48 186.618L2246.69 186ZM2222.69 201.25L2222.2 202.121C2228.66 205.765 2233.4 209.208 2236.47 212.439L2237.19 211.75L2237.92 211.061C2234.65 207.625 2229.72 204.068 2223.18 200.379L2222.69 201.25ZM2237.19 211.75L2236.47 212.439C2239.56 215.699 2244.69 222.709 2251.86 233.552L2252.69 233L2253.53 232.448C2246.37 221.624 2241.15 214.468 2237.92 211.061L2237.19 211.75ZM2252.69 233L2251.85 233.543L2284.85 284.543L2285.69 284L2286.53 283.457L2253.53 232.457L2252.69 233ZM2285.69 284V283H2263.44V284V285H2285.69V284ZM2263.44 284L2264.29 283.462L2234.29 236.462L2233.44 237L2232.6 237.538L2262.6 284.538L2263.44 284ZM2233.44 237L2234.28 236.456C2226.6 224.602 2219.85 216.474 2214.03 212.194L2213.44 213L2212.85 213.806C2218.36 217.86 2224.95 225.731 2232.6 237.544L2233.44 237ZM2213.44 213L2214.05 212.206C2208.18 207.72 2201.05 205.5 2192.69 205.5V206.5V207.5C2200.67 207.5 2207.37 209.613 2212.83 213.794L2213.44 213ZM2192.69 206.5V205.5H2176.94V206.5V207.5H2192.69V206.5ZM2176.94 206.5H2175.94V284H2176.94H2177.94V206.5H2176.94ZM2176.94 284V283H2158.19V284V285H2176.94V284ZM2158.19 284H2159.19V113.5H2158.19H2157.19V284H2158.19ZM2194.44 190V191C2209.66 191 2220.63 188.504 2227.07 183.277L2226.44 182.5L2225.81 181.723C2219.93 186.496 2209.56 189 2194.44 189V190ZM2226.44 182.5L2227.08 183.267C2233.54 177.862 2236.69 169.878 2236.69 159.5H2235.69H2234.69C2234.69 169.455 2231.68 176.805 2225.8 181.733L2226.44 182.5ZM2235.69 159.5H2236.69C2236.69 148.8 2233.46 140.934 2226.77 136.185L2226.19 137L2225.61 137.815C2231.6 142.066 2234.69 149.2 2234.69 159.5H2235.69ZM2226.19 137L2226.8 136.203C2220.4 131.359 2211.57 129 2200.44 129V130V131C2211.31 131 2219.66 133.307 2225.59 137.797L2226.19 137ZM2200.44 130V129H2176.94V130V131H2200.44V130ZM2176.94 130H2175.94V190H2176.94H2177.94V130H2176.94ZM2176.94 190V191H2194.44V190V189H2176.94V190ZM2346.7 113.5L2347.48 112.873L2347.18 112.5H2346.7V113.5ZM2397.45 176.5L2396.67 177.127L2397.45 178.094L2398.23 177.127L2397.45 176.5ZM2448.2 113.5V112.5H2447.72L2447.42 112.873L2448.2 113.5ZM2470.7 113.5L2471.48 114.124L2472.78 112.5H2470.7V113.5ZM2407.2 193L2406.42 192.376L2406.2 192.65V193H2407.2ZM2407.2 284V285H2408.2V284H2407.2ZM2387.95 284H2386.95V285H2387.95V284ZM2387.95 193H2388.95V192.649L2388.73 192.374L2387.95 193ZM2324.2 113.5V112.5H2322.12L2323.42 114.126L2324.2 113.5ZM2346.7 113.5L2345.92 114.127L2396.67 177.127L2397.45 176.5L2398.23 175.873L2347.48 112.873L2346.7 113.5ZM2397.45 176.5L2398.23 177.127L2448.98 114.127L2448.2 113.5L2447.42 112.873L2396.67 175.873L2397.45 176.5ZM2448.2 113.5V114.5H2470.7V113.5V112.5H2448.2V113.5ZM2470.7 113.5L2469.92 112.876L2406.42 192.376L2407.2 193L2407.98 193.624L2471.48 114.124L2470.7 113.5ZM2407.2 193H2406.2V284H2407.2H2408.2V193H2407.2ZM2407.2 284V283H2387.95V284V285H2407.2V284ZM2387.95 284H2388.95V193H2387.95H2386.95V284H2387.95ZM2387.95 193L2388.73 192.374L2324.98 112.874L2324.2 113.5L2323.42 114.126L2387.17 193.626L2387.95 193ZM2324.2 113.5V114.5H2346.7V113.5V112.5H2324.2V113.5ZM722.402 396.7H723.402V395.7H722.402V396.7ZM722.402 442.3H721.402V443.3H722.402V442.3ZM784.502 442.3V443.3H785.502V442.3H784.502ZM784.502 396.7V395.7H783.502V396.7H784.502ZM795.752 396.7H796.752V395.7H795.752V396.7ZM795.752 499V500H796.752V499H795.752ZM784.502 499H783.502V500H784.502V499ZM784.502 452.65H785.502V451.65H784.502V452.65ZM722.402 452.65V451.65H721.402V452.65H722.402ZM722.402 499V500H723.402V499H722.402ZM711.152 499H710.152V500H711.152V499ZM711.152 396.7V395.7H710.152V396.7H711.152ZM722.402 396.7H721.402V442.3H722.402H723.402V396.7H722.402ZM722.402 442.3V443.3H784.502V442.3V441.3H722.402V442.3ZM784.502 442.3H785.502V396.7H784.502H783.502V442.3H784.502ZM784.502 396.7V397.7H795.752V396.7V395.7H784.502V396.7ZM795.752 396.7H794.752V499H795.752H796.752V396.7H795.752ZM795.752 499V498H784.502V499V500H795.752V499ZM784.502 499H785.502V452.65H784.502H783.502V499H784.502ZM784.502 452.65V451.65H722.402V452.65V453.65H784.502V452.65ZM722.402 452.65H721.402V499H722.402H723.402V452.65H722.402ZM722.402 499V498H711.152V499V500H722.402V499ZM711.152 499H712.152V396.7H711.152H710.152V499H711.152ZM711.152 396.7V397.7H722.402V396.7V395.7H711.152V396.7ZM904.621 396.7H905.621V395.7H904.621V396.7ZM904.621 406.75V407.75H905.621V406.75H904.621ZM859.921 406.75V405.75H858.921V406.75H859.921ZM859.921 442.45H858.921V443.45H859.921V442.45ZM903.121 442.45H904.121V441.45H903.121V442.45ZM903.121 452.5V453.5H904.121V452.5H903.121ZM859.921 452.5V451.5H858.921V452.5H859.921ZM859.921 488.8H858.921V489.8H859.921V488.8ZM905.821 488.8H906.821V487.8H905.821V488.8ZM905.821 499V500H906.821V499H905.821ZM848.671 499H847.671V500H848.671V499ZM848.671 396.7V395.7H847.671V396.7H848.671ZM904.621 396.7H903.621V406.75H904.621H905.621V396.7H904.621ZM904.621 406.75V405.75H859.921V406.75V407.75H904.621V406.75ZM859.921 406.75H858.921V442.45H859.921H860.921V406.75H859.921ZM859.921 442.45V443.45H903.121V442.45V441.45H859.921V442.45ZM903.121 442.45H902.121V452.5H903.121H904.121V442.45H903.121ZM903.121 452.5V451.5H859.921V452.5V453.5H903.121V452.5ZM859.921 452.5H858.921V488.8H859.921H860.921V452.5H859.921ZM859.921 488.8V489.8H905.821V488.8V487.8H859.921V488.8ZM905.821 488.8H904.821V499H905.821H906.821V488.8H905.821ZM905.821 499V498H848.671V499V500H905.821V499ZM848.671 499H849.671V396.7H848.671H847.671V499H848.671ZM848.671 396.7V397.7H904.621V396.7V395.7H848.671V396.7ZM998.43 396.1L999.344 395.695L999.08 395.1H998.43V396.1ZM1044.03 499V500H1045.57L1044.94 498.595L1044.03 499ZM1032.48 499L1031.57 499.409L1031.83 500H1032.48V499ZM1018.08 466.9L1018.99 466.491L1018.73 465.9H1018.08V466.9ZM971.58 466.9V465.9H970.921L970.661 466.505L971.58 466.9ZM957.78 499V500H958.438L958.698 499.395L957.78 499ZM946.23 499L945.311 498.605L944.711 500H946.23V499ZM990.48 396.1V395.1H989.821L989.561 395.705L990.48 396.1ZM975.93 456.85L975.008 456.462L974.424 457.85H975.93V456.85ZM1013.58 456.85V457.85H1015.12L1014.49 456.444L1013.58 456.85ZM994.23 413.35L995.143 412.944L994.204 410.832L993.308 412.962L994.23 413.35ZM998.43 396.1L997.515 396.505L1043.12 499.405L1044.03 499L1044.94 498.595L999.344 395.695L998.43 396.1ZM1044.03 499V498H1032.48V499V500H1044.03V499ZM1032.48 499L1033.39 498.591L1018.99 466.491L1018.08 466.9L1017.17 467.309L1031.57 499.409L1032.48 499ZM1018.08 466.9V465.9H971.58V466.9V467.9H1018.08V466.9ZM971.58 466.9L970.661 466.505L956.861 498.605L957.78 499L958.698 499.395L972.498 467.295L971.58 466.9ZM957.78 499V498H946.23V499V500H957.78V499ZM946.23 499L947.148 499.395L991.398 396.495L990.48 396.1L989.561 395.705L945.311 498.605L946.23 499ZM990.48 396.1V397.1H998.43V396.1V395.1H990.48V396.1ZM975.93 456.85V457.85H1013.58V456.85V455.85H975.93V456.85ZM1013.58 456.85L1014.49 456.444L995.143 412.944L994.23 413.35L993.316 413.756L1012.67 457.256L1013.58 456.85ZM994.23 413.35L993.308 412.962L975.008 456.462L975.93 456.85L976.851 457.238L995.151 413.738L994.23 413.35ZM1097.02 396.7H1098.02V395.7H1097.02V396.7ZM1097.02 488.65H1096.02V489.65H1097.02V488.65ZM1145.17 488.65H1146.17V487.65H1145.17V488.65ZM1145.17 499V500H1146.17V499H1145.17ZM1085.77 499H1084.77V500H1085.77V499ZM1085.77 396.7V395.7H1084.77V396.7H1085.77ZM1097.02 396.7H1096.02V488.65H1097.02H1098.02V396.7H1097.02ZM1097.02 488.65V489.65H1145.17V488.65V487.65H1097.02V488.65ZM1145.17 488.65H1144.17V499H1145.17H1146.17V488.65H1145.17ZM1145.17 499V498H1085.77V499V500H1145.17V499ZM1085.77 499H1086.77V396.7H1085.77H1084.77V499H1085.77ZM1085.77 396.7V397.7H1097.02V396.7V395.7H1085.77V396.7ZM1246.28 396.7H1247.28V395.7H1246.28V396.7ZM1246.28 406.6V407.6H1247.28V406.6H1246.28ZM1209.68 406.6V405.6H1208.68V406.6H1209.68ZM1209.68 499V500H1210.68V499H1209.68ZM1198.43 499H1197.43V500H1198.43V499ZM1198.43 406.6H1199.43V405.6H1198.43V406.6ZM1162.28 406.6H1161.28V407.6H1162.28V406.6ZM1162.28 396.7V395.7H1161.28V396.7H1162.28ZM1246.28 396.7H1245.28V406.6H1246.28H1247.28V396.7H1246.28ZM1246.28 406.6V405.6H1209.68V406.6V407.6H1246.28V406.6ZM1209.68 406.6H1208.68V499H1209.68H1210.68V406.6H1209.68ZM1209.68 499V498H1198.43V499V500H1209.68V499ZM1198.43 499H1199.43V406.6H1198.43H1197.43V499H1198.43ZM1198.43 406.6V405.6H1162.28V406.6V407.6H1198.43V406.6ZM1162.28 406.6H1163.28V396.7H1162.28H1161.28V406.6H1162.28ZM1162.28 396.7V397.7H1246.28V396.7V395.7H1162.28V396.7ZM1301.31 396.7H1302.31V395.7H1301.31V396.7ZM1301.31 442.3H1300.31V443.3H1301.31V442.3ZM1363.41 442.3V443.3H1364.41V442.3H1363.41ZM1363.41 396.7V395.7H1362.41V396.7H1363.41ZM1374.66 396.7H1375.66V395.7H1374.66V396.7ZM1374.66 499V500H1375.66V499H1374.66ZM1363.41 499H1362.41V500H1363.41V499ZM1363.41 452.65H1364.41V451.65H1363.41V452.65ZM1301.31 452.65V451.65H1300.31V452.65H1301.31ZM1301.31 499V500H1302.31V499H1301.31ZM1290.06 499H1289.06V500H1290.06V499ZM1290.06 396.7V395.7H1289.06V396.7H1290.06ZM1301.31 396.7H1300.31V442.3H1301.31H1302.31V396.7H1301.31ZM1301.31 442.3V443.3H1363.41V442.3V441.3H1301.31V442.3ZM1363.41 442.3H1364.41V396.7H1363.41H1362.41V442.3H1363.41ZM1363.41 396.7V397.7H1374.66V396.7V395.7H1363.41V396.7ZM1374.66 396.7H1373.66V499H1374.66H1375.66V396.7H1374.66ZM1374.66 499V498H1363.41V499V500H1374.66V499ZM1363.41 499H1364.41V452.65H1363.41H1362.41V499H1363.41ZM1363.41 452.65V451.65H1301.31V452.65V453.65H1363.41V452.65ZM1301.31 452.65H1300.31V499H1301.31H1302.31V452.65H1301.31ZM1301.31 499V498H1290.06V499V500H1301.31V499ZM1290.06 499H1291.06V396.7H1290.06H1289.06V499H1290.06ZM1290.06 396.7V397.7H1301.31V396.7V395.7H1290.06V396.7ZM1551.98 467.65L1551.24 468.333L1552.01 469.152L1552.74 468.298L1551.98 467.65ZM1558.28 458.5L1559.15 458.988L1558.28 458.5ZM1563.38 448.15V447.15H1562.72L1562.46 447.756L1563.38 448.15ZM1574.48 448.15L1575.42 448.473L1575.87 447.15H1574.48V448.15ZM1568.33 461.65L1567.45 461.158L1567.45 461.164L1568.33 461.65ZM1558.88 475.45L1558.1 474.821L1557.56 475.485L1558.13 476.119L1558.88 475.45ZM1561.58 478.45L1562.36 477.825L1562.34 477.803L1562.32 477.781L1561.58 478.45ZM1564.13 481.3L1564.86 480.625L1564.85 480.609L1564.83 480.593L1564.13 481.3ZM1580.33 499V500H1582.6L1581.06 498.325L1580.33 499ZM1565.93 499L1565.19 499.675L1565.48 500H1565.93V499ZM1551.53 483.25L1552.26 482.575L1551.56 481.803L1550.82 482.543L1551.53 483.25ZM1534.43 496.3L1534.87 497.198L1534.87 497.194L1534.88 497.191L1534.43 496.3ZM1499.48 493.6L1498.81 494.349L1498.82 494.356L1499.48 493.6ZM1497.68 460.6L1498.45 461.232L1498.46 461.225L1497.68 460.6ZM1517.03 445.45L1517.52 446.318L1518.66 445.668L1517.73 444.743L1517.03 445.45ZM1506.83 432.55L1505.94 433.014L1505.95 433.027L1505.95 433.039L1506.83 432.55ZM1509.83 404.65L1510.56 405.324L1510.57 405.316L1509.83 404.65ZM1546.13 404.2L1545.42 404.907L1545.43 404.915L1545.43 404.923L1546.13 404.2ZM1547.48 434.8L1548.24 435.442L1548.25 435.433L1547.48 434.8ZM1532.78 447.1L1532.24 446.254L1531.22 446.898L1532.04 447.783L1532.78 447.1ZM1523.48 452.8L1524.21 452.12L1523.64 451.502L1522.93 451.962L1523.48 452.8ZM1516.58 457.3L1516.03 456.462L1516.02 456.468L1516.58 457.3ZM1506.38 466.15L1505.59 465.529L1505.59 465.537L1505.58 465.546L1506.38 466.15ZM1502.93 475.45L1501.93 475.42L1501.93 475.435V475.45H1502.93ZM1506.68 485.05L1505.94 485.729L1505.95 485.737L1505.96 485.744L1506.68 485.05ZM1518.68 489.55L1518.87 488.569L1518.8 488.555L1518.73 488.552L1518.68 489.55ZM1519.43 489.7L1519.23 490.681L1519.33 490.7H1519.43V489.7ZM1530.83 486.85L1531.25 487.757L1531.25 487.753L1531.26 487.749L1530.83 486.85ZM1544.63 475.6L1545.36 476.28L1545.99 475.6L1545.36 474.92L1544.63 475.6ZM1526.48 439.6L1525.77 440.307L1526.32 440.858L1526.99 440.459L1526.48 439.6ZM1538.63 430L1539.41 430.625L1539.41 430.618L1539.42 430.612L1538.63 430ZM1538.33 410.95L1537.63 411.671L1537.64 411.678L1537.65 411.685L1538.33 410.95ZM1518.38 410.65L1519.02 411.413L1519.02 411.411L1518.38 410.65ZM1517.18 428.2L1518.05 427.71L1517.18 428.2ZM1551.98 467.65L1552.74 468.298C1555.08 465.544 1557.22 462.439 1559.15 458.988L1558.28 458.5L1557.4 458.012C1555.53 461.361 1553.47 464.356 1551.21 467.002L1551.98 467.65ZM1558.28 458.5L1559.15 458.988C1561.07 455.558 1562.78 452.077 1564.29 448.544L1563.38 448.15L1562.46 447.756C1560.97 451.223 1559.29 454.642 1557.4 458.012L1558.28 458.5ZM1563.38 448.15V449.15H1574.48V448.15V447.15H1563.38V448.15ZM1574.48 448.15L1573.53 447.827C1572.05 452.161 1570.03 456.605 1567.45 461.158L1568.33 461.65L1569.2 462.142C1571.82 457.495 1573.9 452.939 1575.42 448.473L1574.48 448.15ZM1568.33 461.65L1567.45 461.164C1564.98 465.606 1561.87 470.159 1558.1 474.821L1558.88 475.45L1559.65 476.079C1563.48 471.341 1566.67 466.694 1569.2 462.136L1568.33 461.65ZM1558.88 475.45L1558.13 476.119L1560.83 479.119L1561.58 478.45L1562.32 477.781L1559.62 474.781L1558.88 475.45ZM1561.58 478.45L1560.79 479.075C1561.62 480.103 1562.49 481.081 1563.42 482.007L1564.13 481.3L1564.83 480.593C1563.96 479.719 1563.13 478.797 1562.36 477.825L1561.58 478.45ZM1564.13 481.3L1563.39 481.975L1579.59 499.675L1580.33 499L1581.06 498.325L1564.86 480.625L1564.13 481.3ZM1580.33 499V498H1565.93V499V500H1580.33V499ZM1565.93 499L1566.66 498.325L1552.26 482.575L1551.53 483.25L1550.79 483.925L1565.19 499.675L1565.93 499ZM1551.53 483.25L1550.82 482.543C1544.97 488.393 1539.35 492.67 1533.97 495.409L1534.43 496.3L1534.88 497.191C1540.5 494.33 1546.28 489.907 1552.23 483.957L1551.53 483.25ZM1534.43 496.3L1533.98 495.402C1528.6 498.044 1523.3 499.35 1518.08 499.35V500.35V501.35C1523.65 501.35 1529.25 499.956 1534.87 497.198L1534.43 496.3ZM1518.08 500.35V499.35C1511.1 499.35 1505.14 497.179 1500.13 492.844L1499.48 493.6L1498.82 494.356C1504.21 499.021 1510.65 501.35 1518.08 501.35V500.35ZM1499.48 493.6L1500.14 492.851C1495.15 488.439 1492.68 482.961 1492.68 476.35H1491.68H1490.68C1490.68 483.538 1493.4 489.561 1498.81 494.349L1499.48 493.6ZM1491.68 476.35H1492.68C1492.68 471.01 1494.58 465.978 1498.45 461.232L1497.68 460.6L1496.9 459.968C1492.77 465.022 1490.68 470.49 1490.68 476.35H1491.68ZM1497.68 460.6L1498.46 461.225C1502.34 456.364 1508.67 451.388 1517.52 446.318L1517.03 445.45L1516.53 444.582C1507.58 449.712 1501.01 454.836 1496.89 459.975L1497.68 460.6ZM1517.03 445.45L1517.73 444.743C1513.28 440.286 1509.94 436.058 1507.7 432.061L1506.83 432.55L1505.95 433.039C1508.31 437.242 1511.77 441.614 1516.32 446.157L1517.03 445.45ZM1506.83 432.55L1507.71 432.086C1505.58 428.014 1504.53 423.922 1504.53 419.8H1503.53H1502.53C1502.53 424.278 1503.67 428.686 1505.94 433.014L1506.83 432.55ZM1503.53 419.8H1504.53C1504.53 414.583 1506.51 409.766 1510.56 405.324L1509.83 404.65L1509.09 403.976C1504.74 408.734 1502.53 414.017 1502.53 419.8H1503.53ZM1509.83 404.65L1510.57 405.316C1514.53 400.883 1520.33 398.6 1528.13 398.6V397.6V396.6C1519.92 396.6 1513.52 399.017 1509.08 403.984L1509.83 404.65ZM1528.13 397.6V398.6C1535.52 398.6 1541.25 400.735 1545.42 404.907L1546.13 404.2L1546.83 403.493C1542.2 398.865 1535.93 396.6 1528.13 396.6V397.6ZM1546.13 404.2L1545.43 404.923C1549.74 409.039 1551.88 413.979 1551.88 419.8H1552.88H1553.88C1553.88 413.421 1551.51 407.961 1546.82 403.477L1546.13 404.2ZM1552.88 419.8H1551.88C1551.88 425.165 1550.16 429.942 1546.7 434.167L1547.48 434.8L1548.25 435.433C1551.99 430.858 1553.88 425.635 1553.88 419.8H1552.88ZM1547.48 434.8L1546.71 434.158C1543.19 438.358 1538.38 442.393 1532.24 446.254L1532.78 447.1L1533.31 447.946C1539.57 444.007 1544.56 439.842 1548.24 435.442L1547.48 434.8ZM1532.78 447.1L1532.04 447.783L1551.24 468.333L1551.98 467.65L1552.71 466.967L1533.51 446.417L1532.78 447.1ZM1523.48 452.8L1522.93 451.962L1516.03 456.462L1516.58 457.3L1517.12 458.138L1524.02 453.638L1523.48 452.8ZM1516.58 457.3L1516.02 456.468C1511.47 459.502 1507.98 462.519 1505.59 465.529L1506.38 466.15L1507.16 466.771C1509.37 463.981 1512.68 461.098 1517.13 458.132L1516.58 457.3ZM1506.38 466.15L1505.58 465.546C1503.27 468.593 1502.03 471.891 1501.93 475.42L1502.93 475.45L1503.92 475.48C1504.02 472.409 1505.08 469.507 1507.17 466.754L1506.38 466.15ZM1502.93 475.45H1501.93C1501.93 479.4 1503.27 482.843 1505.94 485.729L1506.68 485.05L1507.41 484.371C1505.08 481.857 1503.93 478.9 1503.93 475.45H1502.93ZM1506.68 485.05L1505.96 485.744C1508.79 488.692 1513.08 490.241 1518.62 490.548L1518.68 489.55L1518.73 488.552C1513.47 488.259 1509.76 486.808 1507.4 484.356L1506.68 485.05ZM1518.68 489.55L1518.48 490.531L1519.23 490.681L1519.43 489.7L1519.62 488.719L1518.87 488.569L1518.68 489.55ZM1519.43 489.7V490.7C1523.11 490.7 1527.05 489.701 1531.25 487.757L1530.83 486.85L1530.4 485.943C1526.4 487.799 1522.74 488.7 1519.43 488.7V489.7ZM1530.83 486.85L1531.26 487.749C1535.52 485.671 1540.22 481.82 1545.36 476.28L1544.63 475.6L1543.89 474.92C1538.83 480.38 1534.33 484.029 1530.39 485.951L1530.83 486.85ZM1544.63 475.6L1545.36 474.92L1524.21 452.12L1523.48 452.8L1522.74 453.48L1543.89 476.28L1544.63 475.6ZM1526.48 439.6L1526.99 440.459C1532.73 437.035 1536.9 433.762 1539.41 430.625L1538.63 430L1537.84 429.375C1535.55 432.238 1531.62 435.365 1525.96 438.741L1526.48 439.6ZM1538.63 430L1539.42 430.612C1541.93 427.365 1543.23 423.905 1543.23 420.25H1542.23H1541.23C1541.23 423.395 1540.12 426.435 1537.83 429.388L1538.63 430ZM1542.23 420.25H1543.23C1543.23 416.194 1541.83 412.82 1539 410.215L1538.33 410.95L1537.65 411.685C1540.03 413.88 1541.23 416.706 1541.23 420.25H1542.23ZM1538.33 410.95L1539.02 410.229C1536.2 407.521 1532.54 406.2 1528.13 406.2V407.2V408.2C1532.11 408.2 1535.25 409.379 1537.63 411.671L1538.33 410.95ZM1528.13 407.2V406.2C1524.11 406.2 1520.62 407.423 1517.73 409.889L1518.38 410.65L1519.02 411.411C1521.53 409.277 1524.54 408.2 1528.13 408.2V407.2ZM1518.38 410.65L1517.73 409.887C1514.9 412.283 1513.48 415.415 1513.48 419.2H1514.48H1515.48C1515.48 415.985 1516.65 413.417 1519.02 411.413L1518.38 410.65ZM1514.48 419.2H1513.48C1513.48 422.217 1514.45 425.386 1516.3 428.69L1517.18 428.2L1518.05 427.71C1516.31 424.614 1515.48 421.783 1515.48 419.2H1514.48ZM1517.18 428.2L1516.3 428.69C1518.17 432.006 1521.34 435.881 1525.77 440.307L1526.48 439.6L1527.18 438.893C1522.81 434.519 1519.78 430.794 1518.05 427.71L1517.18 428.2ZM1682.25 396.7V395.7H1680.78L1681.32 397.069L1682.25 396.7ZM1693.65 396.7L1694.58 396.333L1694.33 395.7H1693.65V396.7ZM1724.4 474.55L1723.47 474.917L1723.72 475.55H1724.4V474.55ZM1724.55 474.55V475.55H1725.24L1725.48 474.913L1724.55 474.55ZM1754.85 396.7V395.7H1754.17L1753.92 396.337L1754.85 396.7ZM1764.9 396.7L1765.83 396.33L1765.58 395.7H1764.9V396.7ZM1795.8 474.25L1794.87 474.62L1795.12 475.25H1795.8V474.25ZM1795.95 474.25V475.25H1796.64L1796.88 474.611L1795.95 474.25ZM1825.95 396.7V395.7H1825.27L1825.02 396.339L1825.95 396.7ZM1837.35 396.7L1838.28 397.067L1838.82 395.7H1837.35V396.7ZM1796.7 499.75V500.75H1797.38L1797.63 500.117L1796.7 499.75ZM1794.3 499.75L1793.37 500.118L1793.62 500.75H1794.3V499.75ZM1759.8 412.6L1760.73 412.232L1759.8 409.873L1758.87 412.235L1759.8 412.6ZM1725.6 499.75V500.75H1726.28L1726.53 500.115L1725.6 499.75ZM1723.2 499.75L1722.27 500.119L1722.52 500.75H1723.2V499.75ZM1682.25 396.7V397.7H1693.65V396.7V395.7H1682.25V396.7ZM1693.65 396.7L1692.72 397.067L1723.47 474.917L1724.4 474.55L1725.33 474.183L1694.58 396.333L1693.65 396.7ZM1724.4 474.55V475.55H1724.55V474.55V473.55H1724.4V474.55ZM1724.55 474.55L1725.48 474.913L1755.78 397.063L1754.85 396.7L1753.92 396.337L1723.62 474.187L1724.55 474.55ZM1754.85 396.7V397.7H1764.9V396.7V395.7H1754.85V396.7ZM1764.9 396.7L1763.97 397.07L1794.87 474.62L1795.8 474.25L1796.73 473.88L1765.83 396.33L1764.9 396.7ZM1795.8 474.25V475.25H1795.95V474.25V473.25H1795.8V474.25ZM1795.95 474.25L1796.88 474.611L1826.88 397.061L1825.95 396.7L1825.02 396.339L1795.02 473.889L1795.95 474.25ZM1825.95 396.7V397.7H1837.35V396.7V395.7H1825.95V396.7ZM1837.35 396.7L1836.42 396.333L1795.77 499.383L1796.7 499.75L1797.63 500.117L1838.28 397.067L1837.35 396.7ZM1796.7 499.75V498.75H1794.3V499.75V500.75H1796.7V499.75ZM1794.3 499.75L1795.23 499.382L1760.73 412.232L1759.8 412.6L1758.87 412.968L1793.37 500.118L1794.3 499.75ZM1759.8 412.6L1758.87 412.235L1724.67 499.385L1725.6 499.75L1726.53 500.115L1760.73 412.965L1759.8 412.6ZM1725.6 499.75V498.75H1723.2V499.75V500.75H1725.6V499.75ZM1723.2 499.75L1724.13 499.381L1683.18 396.331L1682.25 396.7L1681.32 397.069L1722.27 500.119L1723.2 499.75ZM1935.17 396.7H1936.17V395.7H1935.17V396.7ZM1935.17 406.75V407.75H1936.17V406.75H1935.17ZM1890.47 406.75V405.75H1889.47V406.75H1890.47ZM1890.47 442.45H1889.47V443.45H1890.47V442.45ZM1933.67 442.45H1934.67V441.45H1933.67V442.45ZM1933.67 452.5V453.5H1934.67V452.5H1933.67ZM1890.47 452.5V451.5H1889.47V452.5H1890.47ZM1890.47 488.8H1889.47V489.8H1890.47V488.8ZM1936.37 488.8H1937.37V487.8H1936.37V488.8ZM1936.37 499V500H1937.37V499H1936.37ZM1879.22 499H1878.22V500H1879.22V499ZM1879.22 396.7V395.7H1878.22V396.7H1879.22ZM1935.17 396.7H1934.17V406.75H1935.17H1936.17V396.7H1935.17ZM1935.17 406.75V405.75H1890.47V406.75V407.75H1935.17V406.75ZM1890.47 406.75H1889.47V442.45H1890.47H1891.47V406.75H1890.47ZM1890.47 442.45V443.45H1933.67V442.45V441.45H1890.47V442.45ZM1933.67 442.45H1932.67V452.5H1933.67H1934.67V442.45H1933.67ZM1933.67 452.5V451.5H1890.47V452.5V453.5H1933.67V452.5ZM1890.47 452.5H1889.47V488.8H1890.47H1891.47V452.5H1890.47ZM1890.47 488.8V489.8H1936.37V488.8V487.8H1890.47V488.8ZM1936.37 488.8H1935.37V499H1936.37H1937.37V488.8H1936.37ZM1936.37 499V498H1879.22V499V500H1936.37V499ZM1879.22 499H1880.22V396.7H1879.22H1878.22V499H1879.22ZM1879.22 396.7V397.7H1935.17V396.7V395.7H1879.22V396.7ZM1995.76 396.7H1996.76V395.7H1995.76V396.7ZM1995.76 488.65H1994.76V489.65H1995.76V488.65ZM2043.91 488.65H2044.91V487.65H2043.91V488.65ZM2043.91 499V500H2044.91V499H2043.91ZM1984.51 499H1983.51V500H1984.51V499ZM1984.51 396.7V395.7H1983.51V396.7H1984.51ZM1995.76 396.7H1994.76V488.65H1995.76H1996.76V396.7H1995.76ZM1995.76 488.65V489.65H2043.91V488.65V487.65H1995.76V488.65ZM2043.91 488.65H2042.91V499H2043.91H2044.91V488.65H2043.91ZM2043.91 499V498H1984.51V499V500H2043.91V499ZM1984.51 499H1985.51V396.7H1984.51H1983.51V499H1984.51ZM1984.51 396.7V397.7H1995.76V396.7V395.7H1984.51V396.7ZM2098.27 396.7H2099.27V395.7H2098.27V396.7ZM2098.27 488.65H2097.27V489.65H2098.27V488.65ZM2146.42 488.65H2147.42V487.65H2146.42V488.65ZM2146.42 499V500H2147.42V499H2146.42ZM2087.02 499H2086.02V500H2087.02V499ZM2087.02 396.7V395.7H2086.02V396.7H2087.02ZM2098.27 396.7H2097.27V488.65H2098.27H2099.27V396.7H2098.27ZM2098.27 488.65V489.65H2146.42V488.65V487.65H2098.27V488.65ZM2146.42 488.65H2145.42V499H2146.42H2147.42V488.65H2146.42ZM2146.42 499V498H2087.02V499V500H2146.42V499ZM2087.02 499H2088.02V396.7H2087.02H2086.02V499H2087.02ZM2087.02 396.7V397.7H2098.27V396.7V395.7H2087.02V396.7ZM2198.83 396.7L2199.59 396.05L2199.29 395.7H2198.83V396.7ZM2271.28 481.3L2270.52 481.95L2272.28 484.005V481.3H2271.28ZM2271.28 396.7V395.7H2270.28V396.7H2271.28ZM2282.08 396.7H2283.08V395.7H2282.08V396.7ZM2282.08 499V500H2283.08V499H2282.08ZM2272.18 499L2271.42 499.649L2271.72 500H2272.18V499ZM2200.33 414.7L2201.09 414.051L2199.33 411.985V414.7H2200.33ZM2200.33 499V500H2201.33V499H2200.33ZM2189.53 499H2188.53V500H2189.53V499ZM2189.53 396.7V395.7H2188.53V396.7H2189.53ZM2198.83 396.7L2198.07 397.35L2270.52 481.95L2271.28 481.3L2272.04 480.65L2199.59 396.05L2198.83 396.7ZM2271.28 481.3H2272.28V396.7H2271.28H2270.28V481.3H2271.28ZM2271.28 396.7V397.7H2282.08V396.7V395.7H2271.28V396.7ZM2282.08 396.7H2281.08V499H2282.08H2283.08V396.7H2282.08ZM2282.08 499V498H2272.18V499V500H2282.08V499ZM2272.18 499L2272.94 498.351L2201.09 414.051L2200.33 414.7L2199.57 415.349L2271.42 499.649L2272.18 499ZM2200.33 414.7H2199.33V499H2200.33H2201.33V414.7H2200.33ZM2200.33 499V498H2189.53V499V500H2200.33V499ZM2189.53 499H2190.53V396.7H2189.53H2188.53V499H2189.53ZM2189.53 396.7V397.7H2198.83V396.7V395.7H2189.53V396.7ZM2390.91 396.7H2391.91V395.7H2390.91V396.7ZM2390.91 406.75V407.75H2391.91V406.75H2390.91ZM2346.21 406.75V405.75H2345.21V406.75H2346.21ZM2346.21 442.45H2345.21V443.45H2346.21V442.45ZM2389.41 442.45H2390.41V441.45H2389.41V442.45ZM2389.41 452.5V453.5H2390.41V452.5H2389.41ZM2346.21 452.5V451.5H2345.21V452.5H2346.21ZM2346.21 488.8H2345.21V489.8H2346.21V488.8ZM2392.11 488.8H2393.11V487.8H2392.11V488.8ZM2392.11 499V500H2393.11V499H2392.11ZM2334.96 499H2333.96V500H2334.96V499ZM2334.96 396.7V395.7H2333.96V396.7H2334.96ZM2390.91 396.7H2389.91V406.75H2390.91H2391.91V396.7H2390.91ZM2390.91 406.75V405.75H2346.21V406.75V407.75H2390.91V406.75ZM2346.21 406.75H2345.21V442.45H2346.21H2347.21V406.75H2346.21ZM2346.21 442.45V443.45H2389.41V442.45V441.45H2346.21V442.45ZM2389.41 442.45H2388.41V452.5H2389.41H2390.41V442.45H2389.41ZM2389.41 452.5V451.5H2346.21V452.5V453.5H2389.41V452.5ZM2346.21 452.5H2345.21V488.8H2346.21H2347.21V452.5H2346.21ZM2346.21 488.8V489.8H2392.11V488.8V487.8H2346.21V488.8ZM2392.11 488.8H2391.11V499H2392.11H2393.11V488.8H2392.11ZM2392.11 499V498H2334.96V499V500H2392.11V499ZM2334.96 499H2335.96V396.7H2334.96H2333.96V499H2334.96ZM2334.96 396.7V397.7H2390.91V396.7V395.7H2334.96V396.7ZM2487.65 401.95H2488.65V401.397L2488.19 401.103L2487.65 401.95ZM2487.65 414.7L2487.01 415.463L2488.65 416.858V414.7H2487.65ZM2451.5 409.6L2450.87 408.826L2450.86 408.831L2450.86 408.836L2451.5 409.6ZM2461.1 439.3L2460.66 440.198L2460.67 440.2L2461.1 439.3ZM2483.6 453.55L2482.93 454.291L2482.94 454.298L2483.6 453.55ZM2483.3 492.85L2482.63 492.11L2482.62 492.116L2483.3 492.85ZM2435.75 491.35H2434.75V491.85L2435.15 492.15L2435.75 491.35ZM2435.75 477.25L2436.49 476.579L2434.75 474.654V477.25H2435.75ZM2448.05 487L2447.59 487.886L2447.6 487.892L2447.61 487.898L2448.05 487ZM2475.05 485.95L2475.71 486.701L2475.71 486.7L2475.05 485.95ZM2474.45 460.6L2473.8 461.355L2473.8 461.36L2473.81 461.365L2474.45 460.6ZM2457.05 449.65L2456.59 450.535L2456.6 450.54L2457.05 449.65ZM2440.25 436.9L2439.45 437.5L2439.46 437.506L2439.46 437.511L2440.25 436.9ZM2443.85 402.55L2444.5 403.315L2443.85 402.55ZM2487.65 401.95H2486.65V414.7H2487.65H2488.65V401.95H2487.65ZM2487.65 414.7L2488.3 413.937C2480.95 407.708 2473.03 404.55 2464.55 404.55V405.55V406.55C2472.48 406.55 2479.96 409.492 2487.01 415.463L2487.65 414.7ZM2464.55 405.55V404.55C2458.99 404.55 2454.39 405.944 2450.87 408.826L2451.5 409.6L2452.14 410.374C2455.21 407.856 2459.32 406.55 2464.55 406.55V405.55ZM2451.5 409.6L2450.86 408.836C2447.41 411.741 2445.7 415.63 2445.7 420.4H2446.7H2447.7C2447.7 416.17 2449.19 412.859 2452.15 410.364L2451.5 409.6ZM2446.7 420.4H2445.7C2445.7 428.817 2450.86 435.399 2460.66 440.198L2461.1 439.3L2461.54 438.402C2452.14 433.801 2447.7 427.783 2447.7 420.4H2446.7ZM2461.1 439.3L2460.67 440.2C2470.32 444.877 2477.73 449.579 2482.93 454.291L2483.6 453.55L2484.27 452.809C2478.88 447.921 2471.29 443.123 2461.54 438.4L2461.1 439.3ZM2483.6 453.55L2482.94 454.298C2487.98 458.764 2490.55 465.211 2490.55 473.8H2491.55H2492.55C2492.55 464.789 2489.83 457.736 2484.27 452.802L2483.6 453.55ZM2491.55 473.8H2490.55C2490.55 481.23 2487.91 487.307 2482.63 492.11L2483.3 492.85L2483.98 493.59C2489.69 488.393 2492.55 481.77 2492.55 473.8H2491.55ZM2483.3 492.85L2482.62 492.116C2477.44 496.917 2470.7 499.35 2462.3 499.35V500.35V501.35C2471.11 501.35 2478.37 498.783 2483.98 493.584L2483.3 492.85ZM2462.3 500.35V499.35C2452.83 499.35 2444.19 496.424 2436.35 490.55L2435.75 491.35L2435.15 492.15C2443.32 498.276 2452.38 501.35 2462.3 501.35V500.35ZM2435.75 491.35H2436.75V477.25H2435.75H2434.75V491.35H2435.75ZM2435.75 477.25L2435.01 477.921C2438.88 482.196 2443.07 485.524 2447.59 487.886L2448.05 487L2448.52 486.114C2444.23 483.876 2440.23 480.704 2436.49 476.579L2435.75 477.25ZM2448.05 487L2447.61 487.898C2452.25 490.165 2457.15 491.3 2462.3 491.3V490.3V489.3C2457.46 489.3 2452.86 488.235 2448.49 486.102L2448.05 487ZM2462.3 490.3V491.3C2467.7 491.3 2472.2 489.79 2475.71 486.701L2475.05 485.95L2474.39 485.199C2471.31 487.91 2467.31 489.3 2462.3 489.3V490.3ZM2475.05 485.95L2475.71 486.7C2479.35 483.489 2481.15 479.204 2481.15 473.95H2480.15H2479.15C2479.15 478.696 2477.55 482.411 2474.39 485.2L2475.05 485.95ZM2480.15 473.95H2481.15C2481.15 468.004 2479.16 463.254 2475.1 459.835L2474.45 460.6L2473.81 461.365C2477.35 464.346 2479.15 468.496 2479.15 473.95H2480.15ZM2474.45 460.6L2475.11 459.845C2471.22 456.467 2465.34 452.774 2457.51 448.76L2457.05 449.65L2456.6 450.54C2464.37 454.526 2470.09 458.133 2473.8 461.355L2474.45 460.6ZM2457.05 449.65L2457.52 448.765C2449.78 444.697 2444.32 440.528 2441.04 436.289L2440.25 436.9L2439.46 437.511C2442.99 442.072 2448.73 446.403 2456.59 450.535L2457.05 449.65ZM2440.25 436.9L2441.05 436.3C2437.9 432.1 2436.3 426.92 2436.3 420.7H2435.3H2434.3C2434.3 427.28 2436 432.9 2439.45 437.5L2440.25 436.9ZM2435.3 420.7H2436.3C2436.3 413.702 2439.02 407.929 2444.5 403.315L2443.85 402.55L2443.21 401.785C2437.29 406.771 2434.3 413.098 2434.3 420.7H2435.3ZM2443.85 402.55L2444.5 403.315C2450 398.684 2456.76 396.35 2464.85 396.35V395.35V394.35C2456.35 394.35 2449.11 396.816 2443.21 401.785L2443.85 402.55ZM2464.85 395.35V396.35C2472.86 396.35 2480.28 398.496 2487.12 402.797L2487.65 401.95L2488.19 401.103C2481.03 396.604 2473.24 394.35 2464.85 394.35V395.35ZM2586.5 401.95H2587.5V401.397L2587.03 401.103L2586.5 401.95ZM2586.5 414.7L2585.85 415.463L2587.5 416.858V414.7H2586.5ZM2550.35 409.6L2549.72 408.826L2549.71 408.831L2549.71 408.836L2550.35 409.6ZM2559.95 439.3L2559.51 440.198L2559.51 440.2L2559.95 439.3ZM2582.45 453.55L2581.78 454.291L2581.79 454.298L2582.45 453.55ZM2582.15 492.85L2581.48 492.11L2581.47 492.116L2582.15 492.85ZM2534.6 491.35H2533.6V491.85L2534 492.15L2534.6 491.35ZM2534.6 477.25L2535.34 476.579L2533.6 474.654V477.25H2534.6ZM2546.9 487L2546.44 487.886L2546.45 487.892L2546.46 487.898L2546.9 487ZM2573.9 485.95L2574.56 486.701L2574.56 486.7L2573.9 485.95ZM2573.3 460.6L2572.65 461.355L2572.65 461.36L2572.66 461.365L2573.3 460.6ZM2555.9 449.65L2555.44 450.535L2555.44 450.54L2555.9 449.65ZM2539.1 436.9L2538.3 437.5L2538.31 437.506L2538.31 437.511L2539.1 436.9ZM2542.7 402.55L2543.34 403.315L2542.7 402.55ZM2586.5 401.95H2585.5V414.7H2586.5H2587.5V401.95H2586.5ZM2586.5 414.7L2587.15 413.937C2579.8 407.708 2571.87 404.55 2563.4 404.55V405.55V406.55C2571.33 406.55 2578.81 409.492 2585.85 415.463L2586.5 414.7ZM2563.4 405.55V404.55C2557.83 404.55 2553.24 405.944 2549.72 408.826L2550.35 409.6L2550.98 410.374C2554.06 407.856 2558.17 406.55 2563.4 406.55V405.55ZM2550.35 409.6L2549.71 408.836C2546.26 411.741 2544.55 415.63 2544.55 420.4H2545.55H2546.55C2546.55 416.17 2548.04 412.859 2551 410.364L2550.35 409.6ZM2545.55 420.4H2544.55C2544.55 428.817 2549.71 435.399 2559.51 440.198L2559.95 439.3L2560.39 438.402C2550.99 433.801 2546.55 427.783 2546.55 420.4H2545.55ZM2559.95 439.3L2559.51 440.2C2569.17 444.877 2576.58 449.579 2581.78 454.291L2582.45 453.55L2583.12 452.809C2577.73 447.921 2570.13 443.123 2560.39 438.4L2559.95 439.3ZM2582.45 453.55L2581.79 454.298C2586.82 458.764 2589.4 465.211 2589.4 473.8H2590.4H2591.4C2591.4 464.789 2588.68 457.736 2583.11 452.802L2582.45 453.55ZM2590.4 473.8H2589.4C2589.4 481.23 2586.76 487.307 2581.48 492.11L2582.15 492.85L2582.82 493.59C2588.54 488.393 2591.4 481.77 2591.4 473.8H2590.4ZM2582.15 492.85L2581.47 492.116C2576.29 496.917 2569.54 499.35 2561.15 499.35V500.35V501.35C2569.96 501.35 2577.21 498.783 2582.83 493.584L2582.15 492.85ZM2561.15 500.35V499.35C2551.67 499.35 2543.03 496.424 2535.2 490.55L2534.6 491.35L2534 492.15C2542.17 498.276 2551.23 501.35 2561.15 501.35V500.35ZM2534.6 491.35H2535.6V477.25H2534.6H2533.6V491.35H2534.6ZM2534.6 477.25L2533.86 477.921C2537.73 482.196 2541.92 485.524 2546.44 487.886L2546.9 487L2547.36 486.114C2543.08 483.876 2539.07 480.704 2535.34 476.579L2534.6 477.25ZM2546.9 487L2546.46 487.898C2551.1 490.165 2556 491.3 2561.15 491.3V490.3V489.3C2556.3 489.3 2551.7 488.235 2547.34 486.102L2546.9 487ZM2561.15 490.3V491.3C2566.55 491.3 2571.05 489.79 2574.56 486.701L2573.9 485.95L2573.24 485.199C2570.16 487.91 2566.15 489.3 2561.15 489.3V490.3ZM2573.9 485.95L2574.56 486.7C2578.2 483.489 2580 479.204 2580 473.95H2579H2578C2578 478.696 2576.4 482.411 2573.24 485.2L2573.9 485.95ZM2579 473.95H2580C2580 468.004 2578.01 463.254 2573.94 459.835L2573.3 460.6L2572.66 461.365C2576.2 464.346 2578 468.496 2578 473.95H2579ZM2573.3 460.6L2573.96 459.845C2570.07 456.467 2564.18 452.774 2556.36 448.76L2555.9 449.65L2555.44 450.54C2563.22 454.526 2568.93 458.133 2572.65 461.355L2573.3 460.6ZM2555.9 449.65L2556.37 448.765C2548.63 444.697 2543.17 440.528 2539.89 436.289L2539.1 436.9L2538.31 437.511C2541.83 442.072 2547.57 446.403 2555.44 450.535L2555.9 449.65ZM2539.1 436.9L2539.9 436.3C2536.75 432.1 2535.15 426.92 2535.15 420.7H2534.15H2533.15C2533.15 427.28 2534.85 432.9 2538.3 437.5L2539.1 436.9ZM2534.15 420.7H2535.15C2535.15 413.702 2537.87 407.929 2543.34 403.315L2542.7 402.55L2542.06 401.785C2536.14 406.771 2533.15 413.098 2533.15 420.7H2534.15ZM2542.7 402.55L2543.34 403.315C2548.84 398.684 2555.61 396.35 2563.7 396.35V395.35V394.35C2555.19 394.35 2547.96 396.816 2542.06 401.785L2542.7 402.55ZM2563.7 395.35V396.35C2571.71 396.35 2579.13 398.496 2585.97 402.797L2586.5 401.95L2587.03 401.103C2579.88 396.604 2572.09 394.35 2563.7 394.35V395.35Z" fill="#064136" mask="url(#path-1-outside-1_17_69)"/>
<path d="M293.577 367.281C307.692 356.664 321.002 346.061 333.962 335.077C340.461 329.569 351.349 318.393 360.394 307.569C368.834 297.469 374.597 288.812 377.434 276.842C380.089 265.636 381.984 243.562 367.237 224.913C358.954 214.438 347.238 207.737 335.17 204.785C322.539 201.696 306.979 202.149 293.04 209.884C281.279 216.411 271.874 227.32 267.413 239.673C265.797 244.149 264.282 254.312 262.852 254.299C261.421 254.285 260.272 244.501 258.424 239.404C253.636 226.205 243.463 216.197 233.2 210.421C225.318 205.985 216.156 203.438 206.5 203.175C193.683 202.826 178.64 206.582 166.785 216.996C153.058 229.054 148.587 245.72 147.599 256.312C144.087 293.931 178.44 323.253 214.55 358.156C241.421 384.13 261.641 409.565 288.076 435.983C355.147 503.012 393.73 543.078 439.018 539.035C456.136 537.507 478.517 530.21 495.236 512.199C509.398 496.942 519.672 473.948 517.106 448.193C515.196 429.017 506.343 409.784 490.674 395.996C482.717 388.993 463.339 377.945 435.932 376.003C403.972 373.738 378.611 385.063 365.627 391.434C341.334 403.353 312.605 420.159 301.493 427.529C289.57 435.437 232.178 471.048 229.463 473.444C226.747 475.841 167.388 511.873 151.49 520.652C136.742 528.795 112.419 538.878 81.7205 534.473C56.4518 530.847 39.0439 520.351 27.6495 507.502C10.9241 488.642 4.96291 463.551 8.46303 440.947C11.1918 423.326 20.0878 403.669 37.5782 390.092C46.8211 382.917 60.1511 376.26 79.8421 374.124C98.7377 372.075 119.677 376.189 140.487 388.079C151.54 394.394 162.522 404.443 165.846 407.938C187.127 430.324 236.837 483.012 254.801 503.477C266.954 517.321 279.392 530.636 292.638 544" stroke="#313C38" stroke-width="15" stroke-linecap="round"/>
<circle cx="262.5" cy="115" r="54.5" stroke="#313C38" stroke-width="15"/>
</svg>
